<?xml version="1.0" standalone="no"?>
<!DOCTYPE svg PUBLIC "-//W3C//DTD SVG 20010904//EN"
 "http://www.w3.org/TR/2001/REC-SVG-20010904/DTD/svg10.dtd">
<svg version="1.0" xmlns="http://www.w3.org/2000/svg"
 width="1220.000000pt" height="1220.000000pt" viewBox="0 0 1220.000000 1220.000000"
 preserveAspectRatio="xMidYMid meet">

<g transform="translate(0.000000,1220.000000) scale(0.100000,-0.100000)"
fill="#000000" stroke="none">
<path d="M4990 10799 c-2450 -13 -3295 -21 -3327 -31 -40 -12 -47 -34 -33
-102 18 -88 12 -85 210 -95 212 -11 268 -28 342 -107 42 -45 89 -159 104 -254
21 -127 18 -393 -5 -542 -11 -68 -27 -184 -36 -258 -9 -74 -23 -164 -30 -200
-8 -36 -16 -92 -20 -125 -7 -77 -33 -281 -46 -365 -6 -36 -16 -105 -24 -155
-7 -49 -18 -114 -24 -144 -6 -29 -11 -72 -11 -95 0 -22 -7 -66 -15 -96 -9 -30
-20 -84 -25 -120 -9 -65 -49 -304 -69 -410 -26 -143 -52 -290 -60 -340 -15
-88 -39 -221 -50 -275 -5 -27 -19 -115 -31 -195 -41 -281 -72 -455 -104 -594
-33 -142 -69 -332 -101 -531 -14 -88 -32 -196 -40 -240 -8 -44 -24 -138 -35
-210 -11 -71 -27 -164 -35 -205 -8 -41 -24 -127 -35 -190 -12 -63 -29 -158
-39 -210 -11 -52 -26 -140 -35 -195 -38 -225 -59 -335 -82 -435 -82 -348 -195
-552 -346 -627 -124 -62 -276 -98 -464 -110 -133 -8 -134 -8 -134 -91 0 -119
-85 -108 772 -102 409 2 860 5 1003 5 143 1 332 7 420 14 118 9 336 11 830 6
1525 -13 1838 -14 2216 -6 256 5 403 12 416 19 23 13 40 52 52 122 5 25 23 97
41 160 94 335 113 409 150 561 80 339 142 586 165 664 40 135 40 141 11 168
-35 33 -128 45 -163 22 -15 -10 -49 -67 -88 -148 -56 -117 -116 -214 -235
-381 -154 -216 -426 -498 -571 -592 -36 -24 -71 -49 -78 -57 -6 -8 -35 -25
-64 -37 -29 -13 -63 -31 -76 -41 -13 -11 -32 -19 -42 -19 -9 0 -30 -7 -46 -15
-138 -71 -276 -116 -509 -166 -96 -20 -133 -21 -1099 -29 -550 -4 -1047 -11
-1105 -14 -60 -4 -111 -3 -119 2 -11 8 -6 46 27 213 22 112 56 290 76 394 19
105 58 309 86 455 28 146 62 330 75 410 14 80 36 213 50 295 13 83 36 227 51
320 14 94 53 303 85 465 67 330 89 453 119 650 11 74 26 140 33 148 11 10 152
13 705 15 635 2 693 1 708 -15 16 -15 15 -22 -4 -110 -30 -130 -52 -282 -62
-423 -5 -66 -15 -154 -22 -195 -21 -122 -17 -912 5 -1054 9 -60 17 -128 17
-150 0 -88 64 -431 115 -621 18 -66 36 -135 40 -152 8 -41 22 -50 43 -29 15
15 18 69 23 504 6 487 20 861 39 1002 6 41 17 143 25 225 16 164 21 204 66
465 68 398 91 514 105 541 l15 29 619 0 c704 0 652 -7 666 85 9 60 -4 103 -39
129 -28 21 -35 21 -592 21 -310 0 -567 3 -571 7 -8 9 8 67 85 310 91 286 145
419 288 718 249 517 594 988 992 1354 197 181 247 222 491 403 158 117 566
359 725 428 70 31 135 63 188 93 40 23 82 29 92 12 3 -5 15 -10 26 -10 29 0
204 -91 288 -151 91 -64 274 -244 365 -359 134 -169 250 -384 320 -591 91
-272 113 -476 82 -779 -19 -176 -40 -268 -115 -495 -72 -221 -83 -250 -97
-275 -8 -14 -37 -70 -65 -125 -69 -139 -118 -214 -219 -331 -19 -23 -53 -67
-75 -99 -52 -75 -240 -255 -341 -326 -43 -31 -108 -71 -144 -89 -36 -17 -92
-45 -125 -62 -229 -116 -453 -185 -719 -223 -60 -9 -112 -18 -116 -20 -4 -2
-168 -9 -364 -15 -331 -9 -359 -12 -378 -30 -11 -10 -18 -26 -15 -34 3 -8 61
-56 129 -107 68 -51 179 -147 247 -213 151 -148 391 -416 474 -530 34 -47 88
-118 119 -158 52 -67 130 -186 315 -481 78 -124 367 -688 452 -882 169 -385
429 -873 593 -1118 91 -135 305 -394 420 -509 108 -107 373 -319 516 -411 90
-58 310 -182 389 -218 136 -62 478 -179 633 -215 230 -54 266 -56 757 -51
l448 4 130 32 c157 38 316 87 340 105 24 17 27 124 5 151 -15 18 -21 18 -160
-5 -78 -12 -428 -12 -535 1 -113 14 -325 67 -430 109 -147 58 -352 177 -540
314 -129 94 -443 417 -568 584 -229 305 -502 742 -751 1200 -37 67 -90 162
-119 210 -29 48 -77 131 -105 184 -135 251 -365 630 -536 883 -197 290 -312
432 -510 630 -153 152 -203 195 -319 274 -98 66 -136 96 -128 104 6 6 68 14
138 18 71 4 162 14 203 23 41 9 118 23 170 31 293 44 645 189 980 403 146 94
380 288 461 383 214 251 325 427 443 704 136 321 180 631 142 1005 -25 236
-66 389 -168 615 -108 242 -198 378 -372 569 -302 329 -633 537 -1086 684
-214 69 -494 124 -732 143 -382 30 -336 30 -2398 18z m1561 -229 c319 -24 412
-31 544 -45 77 -8 168 -20 201 -25 34 -6 95 -10 137 -10 42 0 99 -5 128 -11
l51 -11 -68 -22 c-38 -13 -109 -36 -157 -51 -49 -16 -100 -39 -113 -52 -14
-13 -32 -23 -40 -23 -9 0 -28 -6 -42 -14 -41 -21 -180 -86 -186 -86 -8 0 -354
-187 -420 -228 -33 -20 -90 -57 -126 -82 -36 -25 -83 -56 -105 -69 -22 -13
-53 -34 -70 -48 -16 -13 -82 -61 -145 -105 -63 -44 -133 -97 -155 -118 -22
-20 -56 -48 -75 -61 -19 -13 -60 -46 -91 -74 -31 -27 -75 -66 -98 -85 -74 -61
-418 -427 -491 -523 -39 -51 -101 -137 -137 -192 -36 -55 -74 -111 -83 -125
-10 -14 -49 -77 -87 -140 -106 -175 -135 -234 -310 -625 -50 -111 -144 -365
-163 -435 -31 -124 -95 -300 -109 -304 -9 -3 -335 -6 -726 -8 l-710 -3 1 30
c1 38 30 229 54 360 10 55 25 138 34 185 28 154 66 361 122 655 59 311 82 438
114 635 18 109 39 215 106 540 8 41 24 122 34 180 134 726 172 910 197 949
l15 23 156 -6 c195 -8 1796 11 1912 22 125 12 745 14 901 2z m590 -4350 c10
-6 19 -15 19 -21 0 -13 -54 -3 -90 17 -25 13 -25 13 13 14 21 0 47 -5 58 -10z"/>
</g>
</svg>
