<?xml version="1.0" standalone="no"?>
<!DOCTYPE svg PUBLIC "-//W3C//DTD SVG 20010904//EN"
 "http://www.w3.org/TR/2001/REC-SVG-20010904/DTD/svg10.dtd">
<svg version="1.0" xmlns="http://www.w3.org/2000/svg"
 width="1220.000000pt" height="1220.000000pt" viewBox="0 0 1220.000000 1220.000000"
 preserveAspectRatio="xMidYMid meet">

<g transform="translate(0.000000,1220.000000) scale(0.100000,-0.100000)"
fill="#000000" stroke="none">
<path d="M4955 10759 c-533 -3 -1491 -10 -2127 -14 l-1158 -8 0 -44 c0 -82 2
-83 156 -83 195 0 288 -27 367 -107 69 -68 95 -127 132 -294 13 -60 16 -112
12 -245 -4 -150 -29 -416 -42 -452 -3 -8 -10 -57 -15 -110 -6 -54 -15 -119
-20 -147 -5 -27 -21 -135 -35 -240 -14 -104 -30 -209 -35 -233 -6 -23 -10 -54
-10 -68 0 -24 -40 -285 -59 -389 -6 -27 -17 -97 -25 -155 -9 -58 -30 -188 -47
-290 -18 -102 -37 -219 -44 -260 -7 -41 -22 -127 -34 -190 -12 -63 -28 -151
-36 -195 -8 -44 -24 -129 -35 -190 -22 -122 -46 -266 -60 -366 -9 -62 -17
-114 -40 -246 -5 -32 -21 -112 -35 -178 -37 -174 -76 -373 -95 -490 -5 -33
-14 -82 -20 -110 -5 -27 -14 -84 -20 -125 -5 -41 -14 -97 -19 -125 -5 -27 -15
-81 -21 -120 -6 -38 -15 -90 -20 -115 -5 -25 -19 -101 -31 -170 -25 -147 -56
-317 -69 -380 -5 -25 -12 -70 -15 -100 -3 -30 -10 -75 -16 -100 -5 -25 -20
-103 -34 -175 -58 -296 -134 -517 -223 -648 -72 -104 -217 -210 -322 -237 -22
-5 -57 -14 -78 -19 -49 -13 -187 -32 -287 -40 l-80 -6 2 -49 c1 -27 6 -53 12
-59 10 -10 596 -10 1766 -2 297 2 1279 7 2182 11 902 4 1646 10 1652 14 12 7
30 63 58 180 8 36 19 69 24 74 5 6 9 22 9 36 0 14 9 51 20 83 11 31 20 64 20
74 0 10 6 38 14 63 14 44 25 86 51 200 7 30 39 154 70 275 31 121 60 236 65
255 4 19 20 80 35 135 46 173 60 244 49 255 -17 17 -108 30 -121 17 -6 -7 -40
-68 -75 -137 -129 -255 -323 -507 -576 -752 -192 -186 -346 -295 -552 -395
-52 -25 -111 -53 -130 -63 -78 -39 -354 -115 -478 -132 -163 -22 -2254 -40
-2274 -20 -13 13 -4 89 32 272 11 58 24 130 29 161 5 31 13 79 20 105 17 79
42 204 52 269 5 33 13 74 18 90 5 17 12 53 16 80 3 28 12 73 19 100 14 48 25
110 51 280 22 138 36 228 47 290 5 33 16 98 23 145 39 254 46 296 54 324 6 17
15 65 21 106 26 170 31 197 44 245 8 28 19 82 26 120 27 162 40 230 46 245 7
19 27 138 78 470 9 57 20 108 26 114 6 6 278 11 712 13 530 4 708 8 722 17 11
7 26 39 36 79 l18 67 -22 6 c-13 3 -342 4 -732 2 l-709 -3 1 35 c2 50 22 183
39 265 15 72 30 157 44 258 5 32 16 91 24 130 9 40 21 104 27 142 6 39 17 104
25 145 7 41 20 119 29 174 9 54 19 103 22 107 3 5 11 46 19 92 7 45 21 124 29
175 9 51 18 98 21 103 6 9 26 121 45 250 6 37 17 86 25 109 8 23 15 59 15 78
0 20 6 61 14 91 8 31 24 112 36 181 11 69 27 157 35 195 8 39 19 99 25 135 7
36 18 99 25 140 7 41 16 82 19 90 4 9 13 51 20 95 29 159 46 243 56 270 5 14
10 37 10 50 0 12 6 45 14 71 56 192 68 230 77 239 6 6 327 12 907 16 493 4
1138 10 1432 14 516 6 715 2 1020 -24 112 -10 140 -14 340 -46 52 -9 136 -22
185 -30 50 -8 107 -19 129 -26 l38 -11 -27 -14 c-15 -8 -31 -14 -36 -14 -5 0
-46 -18 -91 -39 -46 -22 -117 -54 -158 -72 -95 -43 -438 -216 -508 -258 -29
-17 -55 -31 -57 -31 -11 0 -241 -142 -363 -224 -409 -274 -764 -586 -1039
-911 -195 -231 -403 -557 -548 -860 -106 -222 -157 -340 -216 -500 -16 -44
-33 -89 -38 -100 -10 -22 -65 -188 -99 -300 -46 -150 -92 -338 -92 -378 0 -23
-5 -60 -11 -82 -13 -53 -38 -201 -50 -300 -5 -44 -15 -123 -23 -175 -7 -52
-14 -111 -15 -130 0 -19 -6 -109 -11 -200 -20 -330 -23 -464 -10 -590 6 -69
18 -215 26 -325 7 -110 18 -227 24 -260 6 -33 14 -87 19 -120 17 -114 39 -230
56 -295 26 -100 57 -204 64 -212 3 -4 7 221 8 500 1 279 6 568 13 642 6 74 15
205 20 290 5 85 13 189 19 230 6 41 15 118 20 170 14 124 39 301 47 320 3 8
12 51 19 95 17 99 38 204 55 270 7 28 18 73 25 100 7 28 18 70 25 95 6 25 31
110 56 190 25 80 51 168 59 195 32 108 116 357 140 410 7 17 25 62 40 100 111
285 321 692 470 910 204 299 272 387 435 565 129 141 147 159 291 290 410 372
819 639 1302 849 129 56 149 59 241 35 243 -63 539 -321 769 -669 60 -91 153
-273 182 -355 89 -254 97 -296 102 -570 8 -399 -28 -601 -169 -954 -117 -296
-273 -535 -495 -763 -190 -195 -267 -255 -493 -386 -353 -205 -772 -294 -1414
-300 -113 -1 -181 -6 -183 -12 -2 -6 36 -40 84 -75 116 -85 138 -103 273 -235
341 -331 608 -673 890 -1140 99 -164 385 -714 467 -900 89 -202 114 -252 257
-535 150 -296 187 -362 322 -566 339 -509 835 -928 1389 -1173 28 -13 64 -29
82 -37 17 -8 34 -14 38 -14 4 0 21 -6 38 -14 169 -76 475 -154 732 -186 101
-12 575 -12 715 0 203 19 487 81 590 129 40 19 47 40 29 83 -10 25 -17 29 -38
25 -129 -25 -178 -28 -393 -24 -218 4 -360 19 -452 46 -17 5 -65 19 -106 31
-41 12 -88 27 -105 34 -16 8 -59 26 -95 41 -99 43 -244 121 -334 180 -263 174
-573 481 -801 797 -197 270 -519 800 -803 1318 -75 137 -285 504 -345 605
-489 815 -871 1251 -1279 1457 -107 54 -111 58 -74 58 21 0 100 6 175 14 75 8
190 20 256 26 328 31 563 100 890 262 500 248 889 633 1114 1098 135 281 196
519 218 853 4 60 -12 241 -37 412 -44 308 -212 677 -426 938 -295 360 -674
617 -1124 762 -30 10 -74 24 -98 32 -49 17 -143 40 -217 52 -27 5 -79 16 -115
24 -92 22 -210 35 -485 52 -253 16 -265 16 -2270 4z"/>
<path d="M5136 6961 l-370 -6 -22 -55 c-13 -30 -23 -65 -24 -77 l0 -23 593 0
c336 0 598 4 606 9 18 11 27 119 12 141 -12 17 -201 20 -795 11z"/>
</g>
</svg>
